<svg id="ef555a10-c4dc-4d2e-a4b7-dac30cc93691" data-name="Layer 1" xmlns="http://www.w3.org/2000/svg" width="4.72778in" height="0.50338in" viewBox="0 0 340.40048 36.24316"><defs><style>.CLASSa6a94e97-c132-48f2-ae03-11f11093e66c{fill:#9d9795;}.CLASSe312f32b-8359-4032-a3ee-970370572371{fill:#fff;}.CLASSabe20013-5ec6-4e2c-bffd-eb996e22ec28{fill:#cfb991;}</style></defs><title>CompSci_H-Full-Reverse-RGB</title><rect class="CLASSa6a94e97-c132-48f2-ae03-11f11093e66c" x="191.32508" y="1.41748" width="0.71955" height="32.81072"/><path class="CLASSe312f32b-8359-4032-a3ee-970370572371" d="M71.24565,4.06371l-2.05554-.59839V1.98225H77.22c5.23,0,7.16009,1.67071,7.16009,5.62007,0,3.69471-2.10955,5.61-6.24326,5.61H74.88829v5.91645l2.08136.5984v1.379H69.138v-1.379l2.10761-.5984Zm3.64264-.066v7.3876l3.82618-.283c.94994-.43745,1.92921-1.01159,1.92921-3.396,0-1.8025-.08389-3.7086-3.58117-3.7086Z"/><path class="CLASSe312f32b-8359-4032-a3ee-970370572371" d="M114.21574,12.96225h-2.59687v6.16649l2.08135.5984v1.379h-7.8316v-1.379l2.10761-.5984V4.06371l-2.08157-.59839V1.98225h8.383c4.96961,0,6.78116,1.76313,6.78116,5.15175,0,2.6185-1.02184,3.98165-3.3825,4.91753l3.5385,6.92111,2.28626.7545v1.379h-5.33051Zm-2.59687-8.9505V11.297l3.87176-.26025c1.22895-.60922,1.82143-1.58358,1.82143-3.59057,0-2.1075-.68058-3.43446-2.8663-3.43446Z"/><path class="CLASSe312f32b-8359-4032-a3ee-970370572371" d="M125.06142,19.72714l2.08157-.57236V4.06371l-2.05553-.59839V1.98225h9.24305c5.22975,0,8.28211,3.153,8.28211,9.353,0,7.01568-3.16471,9.77094-8.68085,9.77094h-8.87035Zm5.75025-15.71539v15.117h2.73819c1.87958,0,5.12018-.30489,5.12018-7.20728,0-5.43793-.97668-7.90971-5.12018-7.90971Z"/><path class="CLASSe312f32b-8359-4032-a3ee-970370572371" d="M77.23022,31.06945c0,2.32461-1.34442,3.17927-3.547,3.17927-2.21239,0-3.547-1.30343-3.547-3.17927V26.4089l-.99811-.31264v-.87774h4.07629v.87774l-.98594.31264v4.66055c0,1.20244.46136,1.85658,1.77189,1.85658.64055,0,1.72713-.2,1.72713-1.91673V26.4089l-.99811-.31264v-.87774h3.499v.87774l-.9981.31264Z"/><path class="CLASSe312f32b-8359-4032-a3ee-970370572371" d="M84.25959,28.66952v4.27694l.98615.30069v.86926h-3.439v-.86926l1.01-.30069V26.87787l-.42859-.53937-.59638-.18609v-.93389h2.25142l4.3407,5.45895V26.4089l-.99789-.30058v-.8898h3.43883v.8898l-.99789.30058v7.71957H88.66046Z"/><path class="CLASSe312f32b-8359-4032-a3ee-970370572371" d="M98.24644,32.94646l.9979.30069v.86926h-4.088v-.86926l.99789-.30069V26.397l-.99789-.30069v-.87774h4.088v.87774l-.9979.30069Z"/><path class="CLASSe312f32b-8359-4032-a3ee-970370572371" d="M153.30156,32.94646l.99789.30069v.86926h-4.088v-.86926l.99789-.30069V26.397l-.99789-.30069v-.87774h4.088v.87774l-.99789.30069Z"/><path class="CLASSe312f32b-8359-4032-a3ee-970370572371" d="M108.59945,34.11641h-1.92386l-2.82572-7.70751-.99789-.31264v-.87774h4.30463v.87774l-1.01006.31264,1.87564,5.48307,1.91191-5.48307-.99789-.31264v-.87774h3.499v.87774l-.99811.31264Z"/><path class="CLASSe312f32b-8359-4032-a3ee-970370572371" d="M116.69436,26.4089l-.99789-.30058v-.8898h6.98587l.07213,2.74751h-1.11775l-.5412-1.56908H118.7866v2.501h2.30864v1.26251H118.7866v2.81366h2.3691l.70936-1.55945h1.09386l-.15622,2.70171h-7.10623v-.86926l.99789-.249Z"/><path class="CLASSe312f32b-8359-4032-a3ee-970370572371" d="M131.3065,30.48508h-.75759v2.46138l.99789.30069v.86926h-4.088v-.86926l.99789-.30069V26.4089l-.99789-.30058v-.8898H131.523c2.489,0,3.2584.96193,3.2584,2.465a2.1324,2.1324,0,0,1-1.43954,2.32831l1.42758,2.90218,1.25036.38477v.81767h-3.00605Zm-.75759-4.07618v3.11425l1.40678-.12015a1.86629,1.86629,0,0,0,.69741-1.55115c0-.88979-.23432-1.44295-1.14813-1.44295Z"/><path class="CLASSe312f32b-8359-4032-a3ee-970370572371" d="M139.64149,31.35087h1.23632l.26463,1.25046a3.59918,3.59918,0,0,0,1.87792.51709,2.30927,2.30927,0,0,0,.28853-.01206,1.3391,1.3391,0,0,0,.55315-1.07013c0-2.08018-4.25661-1.15432-4.25661-4.19643,0-1.39483,1.27468-2.72948,3.39082-2.72948a5.53537,5.53537,0,0,1,2.41683.61323v2.3447h-1.16714l-.42084-1.491a4.0564,4.0564,0,0,0-1.442-.28863,1.6057,1.6057,0,0,0-.24051.01206,1.23,1.23,0,0,0-.58921,1.04612c0,1.7796,4.22054,1.14226,4.22054,4.1243,0,1.61122-1.455,2.76554-3.41493,2.76554a5.03775,5.03775,0,0,1-2.70536-.80561Z"/><path class="CLASSe312f32b-8359-4032-a3ee-970370572371" d="M161.36008,26.421h-1.15431l-.53037,1.58709h-1.11692V25.21852h7.75563v2.78953h-1.09932l-.5119-1.58709h-1.25057v6.5255l.99811.30069v.86926h-4.08824v-.86926l.99789-.30069Z"/><path class="CLASSe312f32b-8359-4032-a3ee-970370572371" d="M173.29077,30.68953,170.958,26.4089l-.99789-.31264v-.87774h4.30463v.87774l-1.01006.31264,1.467,2.89786,1.47891-2.89786-.99789-.31264v-.87774h3.511v.87774l-.9981.31264-2.34471,4.25662v2.28094l.99811.30069v.86926h-4.08824v-.86926l1.01006-.30069Z"/><polygon class="CLASSe312f32b-8359-4032-a3ee-970370572371" points="177.053 15.564 175.7 19.129 169.712 19.129 169.712 12.249 173.104 12.249 173.541 14.175 175.049 14.175 175.049 8.381 173.541 8.381 173.104 10.239 169.712 10.239 169.712 4.012 175.44 4.012 176.533 7.706 178.595 7.706 178.465 1.982 163.987 1.982 163.987 3.465 166.043 4.064 166.043 19.155 163.961 19.727 163.961 21.106 178.751 21.106 179.089 15.564 177.053 15.564"/><path class="CLASSe312f32b-8359-4032-a3ee-970370572371" d="M102.17305,14.52947c0,4.8519-2.31628,6.86288-7.06422,6.86288-4.37121,0-7.53238-1.74607-7.53238-6.35594V4.06371l-2.08157-.59839V1.98225h7.80578V3.46532l-2.08157.59839v10.9727c0,2.758,1.2749,3.96936,4.31914,3.96936,2.10052,0,4.033-1.23093,4.033-4.22294V4.06371l-2.05554-.59839V1.98225h6.739V3.46532l-2.08157.59839Z"/><path class="CLASSe312f32b-8359-4032-a3ee-970370572371" d="M160.26587,14.52947c0,4.8519-2.31629,6.86288-7.06422,6.86288-4.37121,0-7.53238-1.74607-7.53238-6.35594V4.06371l-2.08157-.59839V1.98225h7.80578V3.46532l-2.08157.59839v10.9727c0,2.758,1.27489,3.96936,4.31914,3.96936,2.10052,0,4.033-1.23093,4.033-4.22294V4.06371l-2.05553-.59839V1.98225h6.739V3.46532l-2.08157.59839Z"/><path class="CLASSabe20013-5ec6-4e2c-bffd-eb996e22ec28" d="M32.33437,34.1343l4.11762-9.673H43.2735c9.8728,0,13.6198-4.05353,16.21131-10.14036.95858-2.25337,2.56457-6.02548.444-9.23373-2.1085-3.19061-6.58651-3.55934-9.77248-3.55934H13.8966L8.78232,13.53792h6.56237l-3.65134,8.58074H5.11613L0,34.1343Z"/><path class="CLASSa6a94e97-c132-48f2-ae03-11f11093e66c" d="M58.07016,6.31508c-1.15271-1.74625-3.669-2.55991-7.91292-2.55991H15.37069l-3.21755,7.55529H18.7155l-5.55084,13.0356H6.5893l-3.21849,7.5618H30.86214l3.22033-7.5618H27.41329l.89914-2.11129h14.962c9.62294,0,12.18936-4.1557,14.1604-8.78512,1.06075-2.49307,1.98217-5.09663.63533-7.13457m-25.107,4.99538H43.95156c1.51409,0,1.29761.75985,1.09883,1.23074A3.6952,3.6952,0,0,1,41.531,14.67756H31.53Z"/><path d="M50.15724,4.91534H16.13514L13.905,10.15409h6.56422L13.93189,25.50435H7.3556l-2.233,5.24432H30.09676l2.232-5.24432H25.66148L27.548,21.0746H43.27443c9.01453,0,11.28094-3.81848,13.095-8.07918,1.815-4.2625,2.80235-8.08008-6.21219-8.08008M41.531,15.83585H29.77816l2.41967-5.68176H43.95156c2.0797,0,2.91846,1.06912,2.1633,2.84133A4.80854,4.80854,0,0,1,41.531,15.83585"/><path class="CLASSa6a94e97-c132-48f2-ae03-11f11093e66c" d="M181.13806,34.09247a1.90816,1.90816,0,1,1,1.90819-1.90812A1.91031,1.91031,0,0,1,181.13806,34.09247Zm0-3.42049a1.51234,1.51234,0,1,0,1.51238,1.51237A1.51409,1.51409,0,0,0,181.13806,30.672Z"/><path class="CLASSa6a94e97-c132-48f2-ae03-11f11093e66c" d="M180.89623,32.35877v.70913h-.37511V31.29767h.77853c.38535,0,.59351.21067.59351.48557a.42529.42529,0,0,1-.257.41883c.08738.0334.221.12329.221.44191v.08731a1.33907,1.33907,0,0,0,.02566.33661h-.36478a1.26441,1.26441,0,0,1-.036-.39825V32.644c0-.19268-.04881-.28521-.334-.28521Zm0-.30572h.3212c.20809,0,.29031-.07964.29031-.22615,0-.14387-.09505-.22609-.28264-.22609h-.32887Z"/><path class="CLASSe312f32b-8359-4032-a3ee-970370572371" d="M203.77389,13.87549h1.83691c1.85938,0,2.60743,1.2207,2.60743,3.56445,0,2.51954-.70411,3.89454-2.70606,3.89454h-1.73828Zm1.166,6.502h.5498c1.14453,0,1.5293-.8916,1.5293-2.92675,0-1.80371-.38477-2.59571-1.51856-2.59571h-.56054Z"/><path class="CLASSe312f32b-8359-4032-a3ee-970370572371" d="M210.2192,18.78174c0,.84766.1211,1.70606.90235,1.70606a.84056.84056,0,0,0,.84668-.83692h1.10058a1.88614,1.88614,0,0,1-1.96972,1.79395c-1.77051,0-2.02442-1.541-2.02442-2.96,0-1.793.66016-2.9043,2.05762-2.9043,1.5957,0,1.98047,1.23242,1.98047,2.68457,0,.165-.01074.40723-.02246.5166Zm1.76074-.83594c0-.69336-.11035-1.41894-.84765-1.41894-.84668,0-.89063,1.01172-.90235,1.41894Z"/><path class="CLASSe312f32b-8359-4032-a3ee-970370572371" d="M214.03561,23.39209V17.31885c0-.77051,0-1.28711-.01074-1.63965h1.10058a5.43759,5.43759,0,0,1,.03223.67188,1.285,1.285,0,0,1,1.29883-.77051c1.05566,0,1.65039.92383,1.65039,2.83887,0,2.14453-.72656,3.02539-1.81543,3.02539a1.1444,1.1444,0,0,1-1.11133-.59473v2.542Zm2.00293-6.832c-.72656,0-.90235.69238-.90235,1.88086,0,1.30957.0879,2.02441.87989,2.02441.627,0,.93554-.7041.93554-1.99121C216.95162,17.09912,216.65475,16.56006,216.03854,16.56006Z"/><path class="CLASSe312f32b-8359-4032-a3ee-970370572371" d="M222.62741,20.1792c0,.3086.0332.92383.04394,1.15528h-1.03418a3.80967,3.80967,0,0,1-.05469-.56153,1.34314,1.34314,0,0,1-1.29882.66016,1.49377,1.49377,0,0,1-1.4961-1.66113c0-1.12208.77051-1.84766,2.22266-1.84766a3.49136,3.49136,0,0,1,.50586.02148v-.6709c0-.36328-.06543-.80273-.69336-.80273-.6377,0-.7041.42871-.73633.80273h-1.07812a1.61571,1.61571,0,0,1,1.85839-1.69433c1.167,0,1.76075.5498,1.76075,1.61719Zm-1.08887-1.39746a2.97045,2.97045,0,0,0-.47363-.02148c-.8252,0-1.14356.3955-1.14356.91308a.7291.7291,0,0,0,.72559.8252c.71484,0,.8916-.52832.8916-1.48535Z"/><path class="CLASSe312f32b-8359-4032-a3ee-970370572371" d="M223.85885,17.59424c0-.91309,0-1.50781-.01074-1.915H224.937a9.54617,9.54617,0,0,1,.0332.958,1.46047,1.46047,0,0,1,1.48535-1.0459v1.26563c-.93555,0-1.45312.38476-1.45312,1.4414v3.03614h-1.14356Z"/><path class="CLASSe312f32b-8359-4032-a3ee-970370572371" d="M226.90573,15.6792h.75879V14.23877h1.13378V15.6792h.91309v.94629h-.91309v3.30078c0,.35254.06543.54981.4834.54981a1.65784,1.65784,0,0,0,.3418-.02149v.84668a2.01862,2.01862,0,0,1-.74805.11035c-.82519,0-1.21093-.30859-1.21093-1.28711v-3.499h-.75879Z"/><path class="CLASSe312f32b-8359-4032-a3ee-970370572371" d="M230.437,17.37354c0-1.07813,0-1.44043-.01172-1.69434h1.08984a5.15832,5.15832,0,0,1,.03223.62793,1.33269,1.33269,0,0,1,1.25488-.72656,1.10351,1.10351,0,0,1,1.15527.792,1.47772,1.47772,0,0,1,1.38575-.792c.7705,0,1.4082.38476,1.4082,1.68359v4.07032h-1.12207V17.43994c0-.49511-.1543-.87988-.6709-.87988-.59473,0-.792.4834-.792,1.19922v3.5752h-1.13379V17.4624c0-.584-.18652-.8916-.66016-.8916-.57129,0-.80273.45118-.80273,1.24317v3.52051H230.437Z"/><path class="CLASSe312f32b-8359-4032-a3ee-970370572371" d="M238.84127,18.78174c0,.84766.1211,1.70606.90137,1.70606a.84156.84156,0,0,0,.84766-.83692h1.09961a1.885,1.885,0,0,1-1.96875,1.79395c-1.77149,0-2.02442-1.541-2.02442-2.96,0-1.793.66016-2.9043,2.05762-2.9043,1.59473,0,1.97949,1.23242,1.97949,2.68457,0,.165-.01074.40723-.02148.5166Zm1.75977-.83594c0-.69336-.11035-1.41894-.84668-1.41894-.84766,0-.8916,1.01172-.90234,1.41894Z"/><path class="CLASSe312f32b-8359-4032-a3ee-970370572371" d="M242.65768,17.43994c0-1.166,0-1.47461-.01074-1.76074h1.09961a4.66941,4.66941,0,0,1,.0332.63867,1.32572,1.32572,0,0,1,1.28711-.7373c.87988,0,1.45215.53906,1.45215,1.7168v4.03711h-1.14453V17.5503c0-.60547-.15332-.99024-.71485-.99024-.59375,0-.8584.35156-.8584,1.32031v3.45411h-1.14355Z"/><path class="CLASSe312f32b-8359-4032-a3ee-970370572371" d="M247.0903,15.6792h.75879V14.23877h1.13378V15.6792h.91309v.94629h-.91309v3.30078c0,.35254.06543.54981.4834.54981a1.65784,1.65784,0,0,0,.3418-.02149v.84668a2.01862,2.01862,0,0,1-.748.11035c-.82519,0-1.21093-.30859-1.21093-1.28711v-3.499h-.75879Z"/><path class="CLASSe312f32b-8359-4032-a3ee-970370572371" d="M256.55026,18.45166c0,2.03614-.72559,2.99317-2.0791,2.99317s-2.05762-.92481-2.05762-2.97071c0-1.98047.82519-2.89355,2.1123-2.89355C255.84616,15.58057,256.55026,16.56006,256.55026,18.45166Zm-2.98145.02246c0,1.32032.26465,2.002.92481,2.002.63769,0,.90136-.68164.90136-1.99121,0-1.32032-.26367-1.93653-.90136-1.93653C253.86666,16.54834,253.56881,17.15381,253.56881,18.47412Z"/><path class="CLASSe312f32b-8359-4032-a3ee-970370572371" d="M257.64987,21.33448v-4.709h-.68164V15.6792h.68164v-.62695c0-.91309.39648-1.60547,1.48535-1.60547a2.1446,2.1446,0,0,1,.50586.05469v.96777a1.55442,1.55442,0,0,0-.33008-.0332c-.39551,0-.5166.23144-.5166.68261v.56055h.83594v.94629h-.83594v4.709Z"/><path class="CLASSe312f32b-8359-4032-a3ee-970370572371" d="M266.46139,19.19971a2.177,2.177,0,0,1-2.167,2.25586c-2.08008,0-2.28906-1.94727-2.28906-3.87305,0-2.332.66015-3.81738,2.36523-3.81738a2.04577,2.04577,0,0,1,2.08008,2.24414h-1.15528c-.01074-.25293-.04394-1.25391-.93554-1.25391-.957,0-1.15528,1.23243-1.15528,2.84961,0,1.46289.1543,2.8711,1.11133,2.8711.8584,0,.957-.957.99024-1.27637Z"/><path class="CLASSe312f32b-8359-4032-a3ee-970370572371" d="M271.27877,18.45166c0,2.03614-.72558,2.99317-2.0791,2.99317s-2.05762-.92481-2.05762-2.97071c0-1.98047.8252-2.89355,2.11231-2.89355C270.57467,15.58057,271.27877,16.56006,271.27877,18.45166Zm-2.98144.02246c0,1.32032.26465,2.002.9248,2.002.6377,0,.90137-.68164.90137-1.99121,0-1.32032-.26367-1.93653-.90137-1.93653C268.59518,16.54834,268.29733,17.15381,268.29733,18.47412Z"/><path class="CLASSe312f32b-8359-4032-a3ee-970370572371" d="M272.2358,17.37354c0-1.07813,0-1.44043-.01171-1.69434h1.08984a5.16035,5.16035,0,0,1,.03223.62793,1.33269,1.33269,0,0,1,1.25488-.72656,1.10352,1.10352,0,0,1,1.15527.792,1.47771,1.47771,0,0,1,1.38574-.792c.77051,0,1.40821.38476,1.40821,1.68359v4.07032h-1.12207V17.43994c0-.49511-.1543-.87988-.6709-.87988-.59473,0-.792.4834-.792,1.19922v3.5752h-1.13379V17.4624c0-.584-.18653-.8916-.66016-.8916-.57129,0-.80273.45118-.80273,1.24317v3.52051H272.2358Z"/><path class="CLASSe312f32b-8359-4032-a3ee-970370572371" d="M279.75924,23.39209V17.31885c0-.77051,0-1.28711-.01074-1.63965h1.10059a5.43993,5.43993,0,0,1,.03222.67188,1.285,1.285,0,0,1,1.29883-.77051c1.05566,0,1.65039.92383,1.65039,2.83887,0,2.14453-.72656,3.02539-1.81543,3.02539a1.1444,1.1444,0,0,1-1.11133-.59473v2.542Zm2.00293-6.832c-.72656,0-.90234.69238-.90234,1.88086,0,1.30957.08789,2.02441.87988,2.02441.627,0,.93555-.7041.93555-1.99121C282.67526,17.09912,282.37838,16.56006,281.76217,16.56006Z"/><path class="CLASSe312f32b-8359-4032-a3ee-970370572371" d="M288.604,19.70655c0,.792,0,1.34179.01074,1.62793h-1.08887a5.056,5.056,0,0,1-.05468-.66016,1.25619,1.25619,0,0,1-1.28711.75879c-.74805,0-1.40821-.35156-1.40821-1.69434V15.6792h1.14356v3.7959c0,.61621.14355.97949.6709.97949.53906,0,.86914-.30859.86914-1.32031V15.6792H288.604Z"/><path class="CLASSe312f32b-8359-4032-a3ee-970370572371" d="M289.30709,15.6792h.75879V14.23877h1.13379V15.6792h.91309v.94629h-.91309v3.30078c0,.35254.06543.54981.4834.54981a1.65789,1.65789,0,0,0,.3418-.02149v.84668a2.01865,2.01865,0,0,1-.74805.11035c-.8252,0-1.21094-.30859-1.21094-1.28711v-3.499h-.75879Z"/><path class="CLASSe312f32b-8359-4032-a3ee-970370572371" d="M293.70748,18.78174c0,.84766.1211,1.70606.90137,1.70606a.84156.84156,0,0,0,.84766-.83692h1.09961a1.885,1.885,0,0,1-1.96875,1.79395c-1.77149,0-2.02442-1.541-2.02442-2.96,0-1.793.66016-2.9043,2.05762-2.9043,1.59473,0,1.97949,1.23242,1.97949,2.68457,0,.165-.01074.40723-.02148.5166Zm1.75977-.83594c0-.69336-.11035-1.41894-.84668-1.41894-.84766,0-.8916,1.01172-.90234,1.41894Z"/><path class="CLASSe312f32b-8359-4032-a3ee-970370572371" d="M297.52389,17.59424c0-.91309,0-1.50781-.01074-1.915H298.602a9.54617,9.54617,0,0,1,.0332.958,1.46046,1.46046,0,0,1,1.48535-1.0459v1.26563c-.93555,0-1.45313.38476-1.45313,1.4414v3.03614h-1.14355Z"/><path class="CLASSe312f32b-8359-4032-a3ee-970370572371" d="M303.71627,19.28858c.06641.6709.35254,1.24316,1.07813,1.24316.7041,0,1.001-.418,1.001-1.07812,0-.67188-.30761-1.0459-1.27539-1.51856-1.24316-.583-1.75-1.11133-1.75-2.21094a2.03042,2.03042,0,0,1,4.05957.07618h-1.13281c-.04394-.39551-.1543-1.11036-.91308-1.11036a.81969.81969,0,0,0-.8584.93457c0,.59375.26465.87989,1.166,1.29786,1.32032.61621,1.88184,1.22168,1.88184,2.43164a1.995,1.995,0,0,1-2.21192,2.10156,2.02029,2.02029,0,0,1-2.20019-2.167Z"/><path class="CLASSe312f32b-8359-4032-a3ee-970370572371" d="M311.61471,19.48584a1.83544,1.83544,0,0,1-1.9248,1.94727c-1.57325,0-1.98047-1.29785-1.98047-2.96973,0-1.5293.50586-2.88281,2.0459-2.88281a1.76526,1.76526,0,0,1,1.85937,1.88183h-1.15527c-.01075-.2207-.05469-.93554-.71485-.93554-.64941,0-.87988.72558-.87988,1.94726,0,1.27637.23047,2.002.8584,2.002.68164,0,.748-.68164.78027-.99024Z"/><path class="CLASSe312f32b-8359-4032-a3ee-970370572371" d="M312.46139,15.6792h1.14355v5.65528h-1.14355Zm.01074-.91308V13.51221h1.14453v1.25391Z"/><path class="CLASSe312f32b-8359-4032-a3ee-970370572371" d="M315.70651,18.78174c0,.84766.12109,1.70606.90136,1.70606a.84155.84155,0,0,0,.84766-.83692h1.09961a1.885,1.885,0,0,1-1.96875,1.79395c-1.77148,0-2.02441-1.541-2.02441-2.96,0-1.793.66015-2.9043,2.05761-2.9043,1.59473,0,1.9795,1.23242,1.9795,2.68457,0,.165-.01075.40723-.02149.5166Zm1.75976-.83594c0-.69336-.11035-1.41894-.84668-1.41894-.84765,0-.8916,1.01172-.90234,1.41894Z"/><path class="CLASSe312f32b-8359-4032-a3ee-970370572371" d="M319.52291,17.43994c0-1.166,0-1.47461-.01074-1.76074h1.09961a4.66941,4.66941,0,0,1,.0332.63867,1.32574,1.32574,0,0,1,1.28711-.7373c.87989,0,1.45215.53906,1.45215,1.7168v4.03711h-1.14453V17.5503c0-.60547-.15332-.99024-.71484-.99024-.59375,0-.8584.35156-.8584,1.32031v3.45411h-1.14356Z"/><path class="CLASSe312f32b-8359-4032-a3ee-970370572371" d="M328.23483,19.48584A1.83544,1.83544,0,0,1,326.31,21.43311c-1.57324,0-1.98047-1.29785-1.98047-2.96973,0-1.5293.50586-2.88281,2.0459-2.88281a1.76526,1.76526,0,0,1,1.85938,1.88183h-1.15528c-.01074-.2207-.05468-.93554-.71484-.93554-.64941,0-.87988.72558-.87988,1.94726,0,1.27637.23047,2.002.8584,2.002.68164,0,.748-.68164.78027-.99024Z"/><path class="CLASSe312f32b-8359-4032-a3ee-970370572371" d="M330.05026,18.78174c0,.84766.12109,1.70606.90136,1.70606a.84155.84155,0,0,0,.84766-.83692h1.09961a1.885,1.885,0,0,1-1.96875,1.79395c-1.77148,0-2.02441-1.541-2.02441-2.96,0-1.793.66015-2.9043,2.05761-2.9043,1.59473,0,1.9795,1.23242,1.9795,2.68457,0,.165-.01075.40723-.02149.5166ZM331.81,17.9458c0-.69336-.11035-1.41894-.84668-1.41894-.84765,0-.8916,1.01172-.90234,1.41894Z"/></svg>