<svg id="fb7fc9cf-aa9d-40b7-b2ed-fffe6b8422a9" data-name="Layer 1" xmlns="http://www.w3.org/2000/svg" width="4.72778in" height="0.50338in" viewBox="0 0 340.40048 36.24316"><defs><style>.CLASSeb2ca58c-22aa-48ce-92f7-fae39810f1f0{fill:#231f20;}.CLASSa3ba8b19-ad85-46fd-97f0-3516549408b6{fill:#9d9795;}.CLASSbbb0aa26-04be-47f3-839a-daeebbeaf4cb{fill:#cfb991;}</style></defs><title>CompSci_H-Full-RGB</title><path class="CLASSeb2ca58c-22aa-48ce-92f7-fae39810f1f0" d="M203.77348,13.87549h1.83789c1.8584,0,2.60742,1.2207,2.60742,3.56445,0,2.51954-.7041,3.89454-2.707,3.89454h-1.73828Zm1.166,6.502h.55078c1.14355,0,1.52929-.8916,1.52929-2.92675,0-1.80371-.38574-2.59571-1.51855-2.59571h-.56152Z"/><path class="CLASSeb2ca58c-22aa-48ce-92f7-fae39810f1f0" d="M210.21977,18.78174c0,.84766.12109,1.70606.90137,1.70606a.84155.84155,0,0,0,.84765-.83692h1.09961a1.885,1.885,0,0,1-1.96875,1.79395c-1.77148,0-2.02441-1.541-2.02441-2.96,0-1.793.66015-2.9043,2.05761-2.9043,1.59473,0,1.9795,1.23242,1.9795,2.68457,0,.165-.01075.40723-.02149.5166Zm1.75976-.83594c0-.69336-.11035-1.41894-.84668-1.41894-.84765,0-.8916,1.01172-.90234,1.41894Z"/><path class="CLASSeb2ca58c-22aa-48ce-92f7-fae39810f1f0" d="M214.03618,23.39209V17.31885c0-.77051,0-1.28711-.01075-1.63965H215.125a5.2201,5.2201,0,0,1,.03321.67188,1.28353,1.28353,0,0,1,1.29785-.77051c1.05664,0,1.65039.92383,1.65039,2.83887,0,2.14453-.72559,3.02539-1.81543,3.02539a1.1444,1.1444,0,0,1-1.11133-.59473v2.542Zm2.00195-6.832c-.72559,0-.90235.69238-.90235,1.88086,0,1.30957.08887,2.02441.88086,2.02441.627,0,.93457-.7041.93457-1.99121C216.95121,17.09912,216.65434,16.56006,216.03813,16.56006Z"/><path class="CLASSeb2ca58c-22aa-48ce-92f7-fae39810f1f0" d="M222.627,20.1792c0,.3086.0332.92383.04394,1.15528h-1.0332a3.79845,3.79845,0,0,1-.05567-.56153,1.34152,1.34152,0,0,1-1.29785.66016,1.49377,1.49377,0,0,1-1.49609-1.66113c0-1.12208.76953-1.84766,2.22168-1.84766a3.5125,3.5125,0,0,1,.50683.02148v-.6709c0-.36328-.0664-.80273-.69336-.80273-.63867,0-.7041.42871-.7373.80273h-1.07813a1.617,1.617,0,0,1,1.85938-1.69433c1.166,0,1.75977.5498,1.75977,1.61719Zm-1.08887-1.39746a2.951,2.951,0,0,0-.47266-.02148c-.82519,0-1.14453.3955-1.14453.91308a.72982.72982,0,0,0,.72656.8252c.71485,0,.89063-.52832.89063-1.48535Z"/><path class="CLASSeb2ca58c-22aa-48ce-92f7-fae39810f1f0" d="M223.85844,17.59424c0-.91309,0-1.50781-.01074-1.915h1.08887a9.22191,9.22191,0,0,1,.0332.958,1.46124,1.46124,0,0,1,1.48535-1.0459v1.26563c-.93555,0-1.45215.38476-1.45215,1.4414v3.03614h-1.14453Z"/><path class="CLASSeb2ca58c-22aa-48ce-92f7-fae39810f1f0" d="M226.90532,15.6792h.75976V14.23877h1.13281V15.6792h.91309v.94629h-.91309v3.30078c0,.35254.06641.54981.48438.54981a1.648,1.648,0,0,0,.34082-.02149v.84668a2.013,2.013,0,0,1-.748.11035c-.82519,0-1.21-.30859-1.21-1.28711v-3.499h-.75976Z"/><path class="CLASSeb2ca58c-22aa-48ce-92f7-fae39810f1f0" d="M230.43657,17.37354c0-1.07813,0-1.44043-.01075-1.69434h1.08887a4.9482,4.9482,0,0,1,.0332.62793,1.33125,1.33125,0,0,1,1.25391-.72656,1.10206,1.10206,0,0,1,1.15527.792,1.47931,1.47931,0,0,1,1.38672-.792c.76953,0,1.40821.38476,1.40821,1.68359v4.07032H235.629V17.43994c0-.49511-.15332-.87988-.6709-.87988-.59375,0-.792.4834-.792,1.19922v3.5752h-1.13281V17.4624c0-.584-.1875-.8916-.66016-.8916-.57227,0-.80371.45118-.80371,1.24317v3.52051h-1.13281Z"/><path class="CLASSeb2ca58c-22aa-48ce-92f7-fae39810f1f0" d="M238.84086,18.78174c0,.84766.1211,1.70606.90235,1.70606a.84056.84056,0,0,0,.84668-.83692h1.10058a1.88614,1.88614,0,0,1-1.96972,1.79395c-1.77051,0-2.02442-1.541-2.02442-2.96,0-1.793.66016-2.9043,2.05762-2.9043,1.5957,0,1.98047,1.23242,1.98047,2.68457,0,.165-.01074.40723-.02246.5166Zm1.76074-.83594c0-.69336-.11035-1.41894-.84765-1.41894-.84668,0-.89063,1.01172-.90235,1.41894Z"/><path class="CLASSeb2ca58c-22aa-48ce-92f7-fae39810f1f0" d="M242.65727,17.43994c0-1.166,0-1.47461-.01074-1.76074h1.10058a4.863,4.863,0,0,1,.03223.63867,1.3273,1.3273,0,0,1,1.28809-.7373c.87988,0,1.45214.53906,1.45214,1.7168v4.03711H245.375V17.5503c0-.60547-.15429-.99024-.71484-.99024-.59473,0-.8584.35156-.8584,1.32031v3.45411h-1.14453Z"/><path class="CLASSeb2ca58c-22aa-48ce-92f7-fae39810f1f0" d="M247.08989,15.6792h.75976V14.23877h1.13281V15.6792h.91309v.94629h-.91309v3.30078c0,.35254.06641.54981.48438.54981a1.648,1.648,0,0,0,.34082-.02149v.84668a2.013,2.013,0,0,1-.74805.11035c-.82519,0-1.21-.30859-1.21-1.28711v-3.499h-.75976Z"/><path class="CLASSeb2ca58c-22aa-48ce-92f7-fae39810f1f0" d="M256.55082,18.45166c0,2.03614-.72656,2.99317-2.0791,2.99317-1.35351,0-2.05762-.92481-2.05762-2.97071,0-1.98047.8252-2.89355,2.11231-2.89355C255.84672,15.58057,256.55082,16.56006,256.55082,18.45166Zm-2.98144.02246c0,1.32032.26367,2.002.92383,2.002.63867,0,.90234-.68164.90234-1.99121,0-1.32032-.26367-1.93653-.90234-1.93653C253.86625,16.54834,253.56938,17.15381,253.56938,18.47412Z"/><path class="CLASSeb2ca58c-22aa-48ce-92f7-fae39810f1f0" d="M257.65043,21.33448v-4.709h-.68261V15.6792h.68261v-.62695c0-.91309.39551-1.60547,1.48438-1.60547a2.14728,2.14728,0,0,1,.50683.05469v.96777a1.561,1.561,0,0,0-.33007-.0332c-.39649,0-.51758.23144-.51758.68261v.56055h.83594v.94629H258.794v4.709Z"/><path class="CLASSeb2ca58c-22aa-48ce-92f7-fae39810f1f0" d="M266.461,19.19971a2.17552,2.17552,0,0,1-2.167,2.25586c-2.0791,0-2.28809-1.94727-2.28809-3.87305,0-2.332.66016-3.81738,2.36524-3.81738a2.04491,2.04491,0,0,1,2.0791,2.24414H265.295c-.01074-.25293-.04394-1.25391-.93457-1.25391-.957,0-1.15527,1.23243-1.15527,2.84961,0,1.46289.1543,2.8711,1.11133,2.8711.85742,0,.957-.957.99023-1.27637Z"/><path class="CLASSeb2ca58c-22aa-48ce-92f7-fae39810f1f0" d="M271.27934,18.45166c0,2.03614-.72656,2.99317-2.0791,2.99317-1.35352,0-2.05762-.92481-2.05762-2.97071,0-1.98047.8252-2.89355,2.11231-2.89355C270.57524,15.58057,271.27934,16.56006,271.27934,18.45166Zm-2.98145.02246c0,1.32032.26368,2.002.92383,2.002.63867,0,.90235-.68164.90235-1.99121,0-1.32032-.26368-1.93653-.90235-1.93653C268.59477,16.54834,268.29789,17.15381,268.29789,18.47412Z"/><path class="CLASSeb2ca58c-22aa-48ce-92f7-fae39810f1f0" d="M272.23539,17.37354c0-1.07813,0-1.44043-.01074-1.69434h1.08887a4.9482,4.9482,0,0,1,.0332.62793,1.33125,1.33125,0,0,1,1.25391-.72656,1.10206,1.10206,0,0,1,1.15527.792,1.4793,1.4793,0,0,1,1.38672-.792c.76953,0,1.4082.38476,1.4082,1.68359v4.07032h-1.123V17.43994c0-.49511-.15332-.87988-.6709-.87988-.59375,0-.792.4834-.792,1.19922v3.5752h-1.13282V17.4624c0-.584-.1875-.8916-.66015-.8916-.57227,0-.80371.45118-.80371,1.24317v3.52051h-1.13282Z"/><path class="CLASSeb2ca58c-22aa-48ce-92f7-fae39810f1f0" d="M279.75981,23.39209V17.31885c0-.77051,0-1.28711-.01074-1.63965h1.09961a5.22042,5.22042,0,0,1,.0332.67188,1.28353,1.28353,0,0,1,1.29785-.77051c1.05664,0,1.65039.92383,1.65039,2.83887,0,2.14453-.72559,3.02539-1.81543,3.02539a1.1444,1.1444,0,0,1-1.11133-.59473v2.542Zm2.00195-6.832c-.72558,0-.90234.69238-.90234,1.88086,0,1.30957.08886,2.02441.88086,2.02441.627,0,.93457-.7041.93457-1.99121C282.67485,17.09912,282.378,16.56006,281.76176,16.56006Z"/><path class="CLASSeb2ca58c-22aa-48ce-92f7-fae39810f1f0" d="M288.60453,19.70655c0,.792,0,1.34179.01075,1.62793h-1.08985a5.23332,5.23332,0,0,1-.05468-.66016,1.2554,1.2554,0,0,1-1.28711.75879c-.74805,0-1.40821-.35156-1.40821-1.69434V15.6792H285.92v3.7959c0,.61621.14258.97949.6709.97949.53907,0,.86914-.30859.86914-1.32031V15.6792h1.14453Z"/><path class="CLASSeb2ca58c-22aa-48ce-92f7-fae39810f1f0" d="M289.30668,15.6792h.75977V14.23877h1.13281V15.6792h.91309v.94629h-.91309v3.30078c0,.35254.06641.54981.48438.54981a1.64807,1.64807,0,0,0,.34082-.02149v.84668a2.013,2.013,0,0,1-.748.11035c-.8252,0-1.21-.30859-1.21-1.28711v-3.499h-.75977Z"/><path class="CLASSeb2ca58c-22aa-48ce-92f7-fae39810f1f0" d="M293.70707,18.78174c0,.84766.1211,1.70606.90235,1.70606a.84056.84056,0,0,0,.84668-.83692h1.10058a1.88614,1.88614,0,0,1-1.96972,1.79395c-1.77051,0-2.02442-1.541-2.02442-2.96,0-1.793.66016-2.9043,2.05762-2.9043,1.5957,0,1.98047,1.23242,1.98047,2.68457,0,.165-.01074.40723-.02246.5166Zm1.76075-.83594c0-.69336-.11036-1.41894-.84766-1.41894-.84668,0-.89063,1.01172-.90234,1.41894Z"/><path class="CLASSeb2ca58c-22aa-48ce-92f7-fae39810f1f0" d="M297.52348,17.59424c0-.91309,0-1.50781-.01074-1.915h1.08886a9.21706,9.21706,0,0,1,.03321.958,1.46124,1.46124,0,0,1,1.48535-1.0459v1.26563c-.93555,0-1.45215.38476-1.45215,1.4414v3.03614h-1.14453Z"/><path class="CLASSeb2ca58c-22aa-48ce-92f7-fae39810f1f0" d="M303.71684,19.28858c.06543.6709.35156,1.24316,1.07812,1.24316.70411,0,1.001-.418,1.001-1.07812,0-.67188-.30762-1.0459-1.27637-1.51856-1.24316-.583-1.749-1.11133-1.749-2.21094a2.03042,2.03042,0,0,1,4.05957.07618h-1.13281c-.04492-.39551-.1543-1.11036-.91309-1.11036a.81922.81922,0,0,0-.8584.93457c0,.59375.26368.87989,1.166,1.29786,1.32031.61621,1.88086,1.22168,1.88086,2.43164a1.99467,1.99467,0,0,1-2.21094,2.10156,2.01929,2.01929,0,0,1-2.20019-2.167Z"/><path class="CLASSeb2ca58c-22aa-48ce-92f7-fae39810f1f0" d="M311.61528,19.48584a1.83637,1.83637,0,0,1-1.92578,1.94727c-1.57325,0-1.98047-1.29785-1.98047-2.96973,0-1.5293.50683-2.88281,2.04687-2.88281a1.76527,1.76527,0,0,1,1.85938,1.88183H310.46c-.01074-.2207-.05468-.93554-.71484-.93554-.64941,0-.88086.72558-.88086,1.94726,0,1.27637.23145,2.002.8584,2.002.68262,0,.74805-.68164.78125-.99024Z"/><path class="CLASSeb2ca58c-22aa-48ce-92f7-fae39810f1f0" d="M312.461,15.6792h1.14453v5.65528H312.461Zm.01172-.91308V13.51221h1.14355v1.25391Z"/><path class="CLASSeb2ca58c-22aa-48ce-92f7-fae39810f1f0" d="M315.7061,18.78174c0,.84766.12109,1.70606.90234,1.70606a.84054.84054,0,0,0,.84668-.83692h1.10059a1.88614,1.88614,0,0,1-1.96973,1.79395c-1.77051,0-2.02441-1.541-2.02441-2.96,0-1.793.66015-2.9043,2.05761-2.9043,1.59571,0,1.98047,1.23242,1.98047,2.68457,0,.165-.01074.40723-.02246.5166Zm1.76074-.83594c0-.69336-.11035-1.41894-.84766-1.41894-.84668,0-.89062,1.01172-.90234,1.41894Z"/><path class="CLASSeb2ca58c-22aa-48ce-92f7-fae39810f1f0" d="M319.5225,17.43994c0-1.166,0-1.47461-.01074-1.76074h1.10059a4.86505,4.86505,0,0,1,.03222.63867,1.32731,1.32731,0,0,1,1.28809-.7373c.87988,0,1.45215.53906,1.45215,1.7168v4.03711h-1.14453V17.5503c0-.60547-.1543-.99024-.71485-.99024-.59472,0-.8584.35156-.8584,1.32031v3.45411H319.5225Z"/><path class="CLASSeb2ca58c-22aa-48ce-92f7-fae39810f1f0" d="M328.23539,19.48584a1.83636,1.83636,0,0,1-1.92578,1.94727c-1.57324,0-1.98047-1.29785-1.98047-2.96973,0-1.5293.50684-2.88281,2.04688-2.88281a1.76525,1.76525,0,0,1,1.85937,1.88183h-1.15527c-.01074-.2207-.05469-.93554-.71484-.93554-.64942,0-.88086.72558-.88086,1.94726,0,1.27637.23144,2.002.8584,2.002.68261,0,.748-.68164.78125-.99024Z"/><path class="CLASSeb2ca58c-22aa-48ce-92f7-fae39810f1f0" d="M330.04985,18.78174c0,.84766.12109,1.70606.90234,1.70606a.84054.84054,0,0,0,.84668-.83692h1.10059a1.88614,1.88614,0,0,1-1.96973,1.79395c-1.77051,0-2.02441-1.541-2.02441-2.96,0-1.793.66015-2.9043,2.05761-2.9043,1.59571,0,1.98047,1.23242,1.98047,2.68457,0,.165-.01074.40723-.02246.5166Zm1.76074-.83594c0-.69336-.11035-1.41894-.84766-1.41894-.84668,0-.89062,1.01172-.90234,1.41894Z"/><rect class="CLASSa3ba8b19-ad85-46fd-97f0-3516549408b6" x="191.32508" y="1.41748" width="0.71955" height="32.81072"/><path d="M71.24565,4.06371l-2.05554-.59839V1.98225H77.22c5.23,0,7.16009,1.67071,7.16009,5.62007,0,3.69471-2.10955,5.61-6.24326,5.61H74.88829v5.91645l2.08136.5984v1.379H69.138v-1.379l2.10761-.5984Zm3.64264-.066v7.3876l3.82618-.283c.94994-.43745,1.92921-1.01159,1.92921-3.396,0-1.8025-.08389-3.7086-3.58117-3.7086Z"/><path d="M114.21574,12.96225h-2.59687v6.16649l2.08135.5984v1.379h-7.8316v-1.379l2.10761-.5984V4.06371l-2.08157-.59839V1.98225h8.383c4.96961,0,6.78116,1.76313,6.78116,5.15175,0,2.6185-1.02184,3.98165-3.3825,4.91753l3.5385,6.92111,2.28626.7545v1.379h-5.33051Zm-2.59687-8.9505V11.297l3.87176-.26025c1.22895-.60922,1.82143-1.58358,1.82143-3.59057,0-2.1075-.68058-3.43446-2.8663-3.43446Z"/><path d="M125.06142,19.72714l2.08157-.57236V4.06371l-2.05553-.59839V1.98225h9.24305c5.22975,0,8.28211,3.153,8.28211,9.353,0,7.01568-3.16471,9.77094-8.68085,9.77094h-8.87035Zm5.75025-15.71539v15.117h2.73819c1.87958,0,5.12018-.30489,5.12018-7.20728,0-5.43793-.97668-7.90971-5.12018-7.90971Z"/><path d="M77.23022,31.06945c0,2.32461-1.34442,3.17927-3.547,3.17927-2.21239,0-3.547-1.30343-3.547-3.17927V26.4089l-.99811-.31264v-.87774h4.07629v.87774l-.98594.31264v4.66055c0,1.20244.46136,1.85658,1.77189,1.85658.64055,0,1.72713-.2,1.72713-1.91673V26.4089l-.99811-.31264v-.87774h3.499v.87774l-.9981.31264Z"/><path d="M84.25959,28.66952v4.27694l.98615.30069v.86926h-3.439v-.86926l1.01-.30069V26.87787l-.42859-.53937-.59638-.18609v-.93389h2.25142l4.3407,5.45895V26.4089l-.99789-.30058v-.8898h3.43883v.8898l-.99789.30058v7.71957H88.66046Z"/><path d="M98.24644,32.94646l.9979.30069v.86926h-4.088v-.86926l.99789-.30069V26.397l-.99789-.30069v-.87774h4.088v.87774l-.9979.30069Z"/><path d="M153.30156,32.94646l.99789.30069v.86926h-4.088v-.86926l.99789-.30069V26.397l-.99789-.30069v-.87774h4.088v.87774l-.99789.30069Z"/><path d="M108.59945,34.11641h-1.92386l-2.82572-7.70751-.99789-.31264v-.87774h4.30463v.87774l-1.01006.31264,1.87564,5.48307,1.91191-5.48307-.99789-.31264v-.87774h3.499v.87774l-.99811.31264Z"/><path d="M116.69436,26.4089l-.99789-.30058v-.8898h6.98587l.07213,2.74751h-1.11775l-.5412-1.56908H118.7866v2.501h2.30864v1.26251H118.7866v2.81366h2.3691l.70936-1.55945h1.09386l-.15622,2.70171h-7.10623v-.86926l.99789-.249Z"/><path d="M131.3065,30.48508h-.75759v2.46138l.99789.30069v.86926h-4.088v-.86926l.99789-.30069V26.4089l-.99789-.30058v-.8898H131.523c2.489,0,3.2584.96193,3.2584,2.465a2.1324,2.1324,0,0,1-1.43954,2.32831l1.42758,2.90218,1.25036.38477v.81767h-3.00605Zm-.75759-4.07618v3.11425l1.40678-.12015a1.86629,1.86629,0,0,0,.69741-1.55115c0-.88979-.23432-1.44295-1.14813-1.44295Z"/><path d="M139.64149,31.35087h1.23632l.26463,1.25046a3.59918,3.59918,0,0,0,1.87792.51709,2.30927,2.30927,0,0,0,.28853-.01206,1.3391,1.3391,0,0,0,.55315-1.07013c0-2.08018-4.25661-1.15432-4.25661-4.19643,0-1.39483,1.27468-2.72948,3.39082-2.72948a5.53537,5.53537,0,0,1,2.41683.61323v2.3447h-1.16714l-.42084-1.491a4.0564,4.0564,0,0,0-1.442-.28863,1.6057,1.6057,0,0,0-.24051.01206,1.23,1.23,0,0,0-.58921,1.04612c0,1.7796,4.22054,1.14226,4.22054,4.1243,0,1.61122-1.455,2.76554-3.41493,2.76554a5.03775,5.03775,0,0,1-2.70536-.80561Z"/><path d="M161.36008,26.421h-1.15431l-.53037,1.58709h-1.11692V25.21852h7.75563v2.78953h-1.09932l-.5119-1.58709h-1.25057v6.5255l.99811.30069v.86926h-4.08824v-.86926l.99789-.30069Z"/><path d="M173.29077,30.68953,170.958,26.4089l-.99789-.31264v-.87774h4.30463v.87774l-1.01006.31264,1.467,2.89786,1.47891-2.89786-.99789-.31264v-.87774h3.511v.87774l-.9981.31264-2.34471,4.25662v2.28094l.99811.30069v.86926h-4.08824v-.86926l1.01006-.30069Z"/><polygon points="177.053 15.564 175.7 19.129 169.712 19.129 169.712 12.249 173.104 12.249 173.541 14.175 175.049 14.175 175.049 8.381 173.541 8.381 173.104 10.239 169.712 10.239 169.712 4.012 175.44 4.012 176.533 7.706 178.595 7.706 178.465 1.982 163.987 1.982 163.987 3.465 166.043 4.064 166.043 19.155 163.961 19.727 163.961 21.106 178.751 21.106 179.089 15.564 177.053 15.564"/><path d="M102.17305,14.52947c0,4.8519-2.31628,6.86288-7.06422,6.86288-4.37121,0-7.53238-1.74607-7.53238-6.35594V4.06371l-2.08157-.59839V1.98225h7.80578V3.46532l-2.08157.59839v10.9727c0,2.758,1.2749,3.96936,4.31914,3.96936,2.10052,0,4.033-1.23093,4.033-4.22294V4.06371l-2.05554-.59839V1.98225h6.739V3.46532l-2.08157.59839Z"/><path d="M160.26587,14.52947c0,4.8519-2.31629,6.86288-7.06422,6.86288-4.37121,0-7.53238-1.74607-7.53238-6.35594V4.06371l-2.08157-.59839V1.98225h7.80578V3.46532l-2.08157.59839v10.9727c0,2.758,1.27489,3.96936,4.31914,3.96936,2.10052,0,4.033-1.23093,4.033-4.22294V4.06371l-2.05553-.59839V1.98225h6.739V3.46532l-2.08157.59839Z"/><path d="M32.33437,34.1343l4.11762-9.673H43.2735c9.8728,0,13.6198-4.05353,16.21131-10.14036.95858-2.25337,2.56457-6.02548.444-9.23373-2.1085-3.19061-6.58651-3.55934-9.77248-3.55934H13.8966L8.78232,13.53792h6.56237l-3.65134,8.58074H5.11613L0,34.1343Z"/><path class="CLASSa3ba8b19-ad85-46fd-97f0-3516549408b6" d="M58.07016,6.31508c-1.15271-1.74625-3.669-2.55991-7.91292-2.55991H15.37069l-3.21755,7.55529H18.7155l-5.55084,13.0356H6.5893l-3.21849,7.5618H30.86214l3.22033-7.5618H27.41329l.89914-2.11129h14.962c9.62294,0,12.18936-4.1557,14.1604-8.78512,1.06075-2.49307,1.98217-5.09663.63533-7.13457m-25.107,4.99538H43.95156c1.51409,0,1.29761.75985,1.09883,1.23074A3.6952,3.6952,0,0,1,41.531,14.67756H31.53Z"/><path class="CLASSbbb0aa26-04be-47f3-839a-daeebbeaf4cb" d="M50.15724,4.91534H16.13514L13.905,10.15409h6.56422L13.93189,25.50435H7.3556l-2.233,5.24432H30.09676l2.232-5.24432H25.66148L27.548,21.0746H43.27443c9.01453,0,11.28094-3.81848,13.095-8.07918,1.815-4.2625,2.80235-8.08008-6.21219-8.08008M41.531,15.83585H29.77816l2.41967-5.68176H43.95156c2.0797,0,2.91846,1.06912,2.1633,2.84133A4.80854,4.80854,0,0,1,41.531,15.83585"/><path class="CLASSa3ba8b19-ad85-46fd-97f0-3516549408b6" d="M181.13806,34.09247a1.90816,1.90816,0,1,1,1.90819-1.90812A1.91031,1.91031,0,0,1,181.13806,34.09247Zm0-3.42049a1.51234,1.51234,0,1,0,1.51238,1.51237A1.51409,1.51409,0,0,0,181.13806,30.672Z"/><path class="CLASSa3ba8b19-ad85-46fd-97f0-3516549408b6" d="M180.89623,32.35877v.70913h-.37511V31.29767h.77853c.38535,0,.59351.21067.59351.48557a.42529.42529,0,0,1-.257.41883c.08738.0334.221.12329.221.44191v.08731a1.33907,1.33907,0,0,0,.02566.33661h-.36478a1.26441,1.26441,0,0,1-.036-.39825V32.644c0-.19268-.04881-.28521-.334-.28521Zm0-.30572h.3212c.20809,0,.29031-.07964.29031-.22615,0-.14387-.09505-.22609-.28264-.22609h-.32887Z"/></svg>